<svg xmlns="http://www.w3.org/2000/svg" viewBox="0 0 2200 1819" width="2200" height="1819">
<title>SKO Compounds — mark, two colour</title>
<path id="ink" transform="translate(0.000000,1819.000000) scale(0.100000,-0.100000)" fill="#173384" fill-rule="evenodd" d="M10840 18118 c-47 -23 -110 -51 -140 -63 -30 -12 -127 -53 -215 -90
-88 -37 -191 -80 -230 -95 -38 -15 -144 -58 -235 -94 -219 -89 -356 -137 -920
-326 -612 -203 -689 -227 -983 -306 -70 -19 -167 -45 -215 -58 -158 -45 -765
-198 -897 -227 -358 -79 -460 -105 -479 -120 l-21 -17 -3 -1924 c-3 -2096 -3
-2095 54 -2447 110 -681 465 -1419 974 -2022 427 -507 886 -906 1535 -1334
296 -195 568 -361 775 -473 36 -19 122 -66 192 -103 69 -38 129 -69 132 -69 6
0 429 -199 469 -221 59 -32 333 -139 355 -139 95 0 1139 511 1440 704 20 13
127 79 237 146 212 131 344 218 490 325 50 36 101 73 115 83 322 216 803 650
1121 1012 512 582 898 1356 1005 2013 76 470 74 386 74 2523 0 1917 0 1921
-20 1939 -21 19 -134 48 -410 105 -130 27 -665 161 -1080 270 -243 64 -613
173 -870 255 -451 145 -627 205 -895 305 -60 23 -150 56 -200 75 -156 58 -797
322 -973 400 -50 23 -89 17 -182 -27z M3585 6820 c-318 -7 -382 -13 -588 -51
-301 -56 -530 -172 -714 -362 -131 -135 -204 -258 -263 -440 -46 -139 -60
-247 -60 -452 0 -343 59 -577 197 -790 51 -78 212 -241 288 -292 217 -146 531
-249 883 -293 86 -10 175 -22 197 -25 22 -4 492 -10 1045 -15 581 -4 1064 -12
1145 -19 332 -27 450 -76 516 -214 41 -87 55 -183 41 -269 -29 -165 -106 -250
-268 -292 -177 -46 -191 -46 -2047 -46 -964 -1 -1772 -5 -1796 -9 -25 -5 -51
-17 -58 -27 -10 -14 -13 -110 -13 -450 0 -410 1 -433 19 -455 l19 -24 1779 3
c1686 3 2057 8 2222 32 246 35 343 58 495 117 352 137 559 319 690 608 159
347 156 876 -5 1198 -162 321 -447 541 -870 670 -335 103 -543 117 -1727 117
-998 0 -1123 6 -1325 65 -167 48 -243 213 -208 445 23 147 88 232 203 264 184
51 147 50 1982 52 1654 1 1710 2 1723 20 19 27 15 906 -5 926 -11 11 -312 13
-1595 14 -870 0 -1726 -3 -1902 -6z M8023 6810 c-14 -6 -24 -21 -28 -42 -3
-18 -5 -1030 -3 -2248 3 -2391 0 -2250 56 -2271 38 -14 563 -23 856 -14 224 7
250 9 267 26 18 18 19 51 19 939 0 899 0 920 19 930 24 13 669 13 724 1 50
-12 88 -39 270 -194 84 -71 195 -163 247 -205 96 -77 297 -243 494 -407 60
-49 175 -144 256 -210 81 -66 216 -179 301 -250 85 -72 195 -162 244 -200 103
-80 215 -175 295 -250 61 -57 136 -112 202 -147 l43 -23 858 -3 857 -3 0 25
c0 17 -14 36 -47 63 -110 88 -464 380 -537 441 -128 108 -216 181 -341 282
-64 52 -202 165 -305 250 -103 85 -237 194 -296 241 -60 48 -161 131 -225 185
-102 86 -271 224 -508 414 -278 223 -533 433 -608 502 -74 67 -71 73 130 240
94 79 219 181 277 228 111 89 163 132 356 297 194 165 414 350 669 565 132
111 263 222 290 247 28 26 83 74 124 106 128 103 157 127 277 230 65 55 146
124 181 153 50 42 63 58 63 81 l0 29 -659 1 c-399 0 -680 -3 -711 -9 -58 -11
-157 -76 -278 -184 -96 -85 -320 -278 -362 -312 -19 -16 -71 -60 -116 -99
-147 -129 -396 -339 -465 -395 -116 -93 -528 -442 -649 -550 -63 -56 -162
-137 -219 -180 l-104 -78 -151 -7 c-252 -11 -585 -3 -597 15 -6 10 -9 320 -7
887 3 826 2 873 -15 890 -17 17 -54 18 -570 20 -304 0 -562 -3 -574 -7z
M15730 6799 c-783 -48 -1265 -284 -1490 -728 -37 -75 -89 -227 -112 -334 l-23
-102 0 -1050 0 -1050 28 -127 c101 -465 345 -774 761 -963 225 -102 560 -167
1016 -196 246 -16 2111 -15 2375 1 521 31 787 92 1075 247 295 159 475 399
584 778 40 138 46 262 45 1030 0 973 -9 1232 -43 1399 -49 230 -139 421 -268
563 -323 357 -676 486 -1451 532 -210 13 -2293 12 -2497 0z m2131 -899 c627
-36 794 -125 880 -470 l24 -95 0 -850 0 -850 -24 -70 c-69 -202 -161 -293
-366 -360 -193 -63 -225 -65 -1294 -65 -589 0 -999 4 -1062 10 -124 13 -294
52 -364 84 -49 22 -152 100 -188 141 -36 42 -86 143 -106 215 -40 149 -43 212
-39 1031 4 774 5 785 27 864 84 304 241 378 876 414 211 12 1426 12 1636 1z
M2540 1275 c-8 -2 -49 -8 -90 -15 -112 -17 -227 -55 -300 -97 -147 -86 -262
-242 -301 -409 l-21 -92 22 -104 c42 -194 109 -296 262 -395 150 -97 302 -133
560 -133 235 0 358 25 468 95 53 34 53 61 -1 120 -51 55 -67 56 -179 11 -191
-78 -406 -73 -595 13 -161 74 -248 271 -211 478 24 135 89 229 196 283 106 53
162 65 320 64 153 -1 252 -19 340 -64 57 -29 80 -25 128 20 59 57 59 95 -1
132 -94 58 -235 89 -432 94 -82 1 -157 1 -165 -1z M4310 1274 c-275 -55 -419
-132 -535 -286 -141 -188 -152 -442 -29 -635 95 -149 224 -232 455 -295 126
-34 424 -33 554 1 263 68 411 191 481 398 24 68 27 93 27 198 0 110 -3 127
-31 198 -43 110 -73 156 -140 218 -91 85 -228 150 -387 186 -69 15 -344 27
-395 17z m316 -189 c194 -50 300 -163 342 -364 18 -88 11 -148 -30 -260 -38
-104 -172 -209 -315 -246 -122 -32 -307 -13 -416 41 -116 58 -190 144 -220
254 -32 118 -29 197 15 329 67 204 350 316 624 246z M10622 1270 c-255 -36
-469 -151 -569 -307 -18 -29 -47 -94 -64 -145 -28 -83 -31 -102 -27 -183 8
-168 86 -334 197 -419 155 -119 330 -175 578 -183 328 -11 539 64 702 249 207
236 197 536 -26 763 -115 117 -218 171 -404 210 -89 19 -300 27 -387 15z m264
-171 c127 -22 239 -80 295 -150 17 -22 45 -72 63 -112 29 -68 31 -78 31 -202
0 -127 -1 -132 -32 -191 -97 -185 -361 -283 -616 -229 -105 22 -171 57 -241
127 -89 90 -111 152 -111 313 0 114 2 123 32 187 40 85 75 131 131 174 102 77
287 112 448 83z M18755 1263 c-313 -70 -428 -152 -442 -314 -7 -77 19 -160 67
-210 77 -82 243 -133 585 -183 193 -28 267 -51 313 -99 62 -64 48 -133 -39
-197 -57 -41 -126 -60 -241 -67 -133 -8 -256 10 -421 63 -75 24 -149 44 -162
44 -15 0 -42 -15 -65 -37 -33 -29 -40 -42 -38 -65 3 -26 11 -33 68 -58 36 -16
130 -46 210 -67 l145 -38 230 1 c223 0 233 1 320 28 150 46 248 114 294 205
29 56 30 195 2 249 -57 110 -194 171 -481 212 -80 11 -152 23 -160 26 -8 3
-48 9 -90 15 -169 21 -238 60 -247 140 -7 61 16 111 64 143 49 33 179 66 257
66 76 0 252 -31 371 -64 115 -33 120 -33 161 8 49 49 47 89 -3 115 -55 27
-160 58 -260 76 -83 14 -386 20 -438 8z M5892 1253 c-50 -10 -50 -12 -56 -553
-6 -527 -2 -614 29 -637 23 -16 139 -18 184 -2 55 19 56 22 59 422 l3 367 27
-1 c29 0 107 -83 207 -219 145 -196 226 -299 250 -319 32 -25 84 -27 124 -7
26 14 106 106 161 186 55 81 197 269 240 317 44 52 80 67 96 41 4 -6 8 -177 8
-379 1 -441 -9 -410 133 -417 77 -4 91 -2 113 16 l25 20 3 524 c1 287 0 542
-3 566 -9 64 -36 77 -155 77 -52 0 -107 -3 -123 -8 -46 -13 -101 -72 -204
-216 -126 -176 -203 -281 -266 -358 -43 -53 -55 -63 -82 -63 -28 0 -41 11
-114 103 -45 56 -133 176 -196 267 -133 193 -197 264 -244 273 -36 7 -181 7
-219 0z M8180 1242 l-25 -20 0 -572 0 -572 24 -19 c43 -35 210 -18 233 24 6
13 14 90 17 179 5 125 9 161 22 173 14 14 64 18 335 25 344 9 390 16 499 73
90 47 183 156 206 240 16 60 7 194 -16 242 -29 59 -116 142 -182 172 -131 60
-169 64 -648 70 -431 5 -440 5 -465 -15z m865 -176 c75 -19 112 -42 145 -88
26 -36 30 -50 30 -108 0 -93 -34 -146 -122 -189 -91 -45 -168 -54 -402 -46
-195 7 -243 14 -258 38 -4 7 -8 91 -8 188 0 178 4 199 40 212 34 12 525 7 575
-7z M12173 1249 c-22 -6 -34 -18 -42 -41 -14 -38 -15 -684 -2 -775 20 -135 98
-241 224 -303 92 -44 252 -90 340 -97 55 -4 77 -10 77 -19 0 -11 18 -14 70
-14 52 0 70 3 70 14 0 9 23 15 83 19 279 21 469 158 522 379 18 72 33 640 21
741 -11 87 -25 97 -139 97 -142 0 -131 33 -137 -414 -5 -363 -5 -372 -28 -418
-121 -246 -550 -298 -744 -90 -78 83 -81 101 -86 517 -2 197 -8 367 -13 377
-18 33 -140 49 -216 27z M14235 1251 c-51 -22 -50 -12 -57 -520 -7 -538 -4
-643 22 -666 43 -39 212 -25 230 19 5 11 13 188 17 391 l8 370 23 3 c29 4 94
-51 312 -263 382 -371 538 -514 578 -526 22 -6 77 -10 126 -8 73 3 90 7 102
23 12 17 14 112 14 581 0 647 9 592 -101 601 -85 7 -119 -4 -144 -47 -19 -32
-20 -48 -17 -347 2 -172 0 -337 -3 -367 -7 -53 -8 -55 -37 -55 -32 0 -78 42
-612 562 -143 140 -237 224 -261 234 -45 18 -171 28 -200 15z M16306 1246
c-35 -26 -39 -67 -44 -497 -5 -443 2 -646 22 -674 21 -29 76 -32 461 -24 484
10 599 29 781 130 73 41 183 150 213 212 69 143 62 380 -16 530 -85 162 -273
271 -538 311 -129 19 -857 30 -879 12z m842 -180 c202 -42 292 -131 333 -331
19 -90 19 -121 -3 -220 -28 -132 -114 -209 -293 -264 -156 -49 -587 -52 -622
-5 -16 22 -19 766 -3 808 7 21 17 26 57 29 102 10 458 -2 531 -17z M683 593
l-253 -3 0 -24 0 -24 293 -7 c160 -3 344 -5 407 -3 l115 3 3 26 c4 36 -13 39
-178 37 -74 -2 -249 -4 -387 -5z M20363 593 c-19 -7 -16 -50 4 -57 9 -4 119
-4 245 0 226 7 228 7 228 29 0 20 -7 23 -67 28 -79 8 -392 8 -410 0z"/>
<path id="knockout" transform="translate(0.000000,1819.000000) scale(0.100000,-0.100000)" fill="#FFFFFF" fill-rule="evenodd" d="M10930 17726 c-112 -43 -176 -69 -265 -111 -55 -26 -167 -71 -250
-100 -184 -65 -309 -113 -397 -153 -37 -17 -114 -46 -170 -66 -57 -19 -182
-61 -278 -94 -96 -33 -249 -84 -340 -112 -91 -28 -212 -66 -270 -84 -345 -111
-478 -152 -680 -210 -274 -79 -391 -110 -494 -131 -43 -9 -106 -25 -140 -36
-33 -11 -204 -53 -380 -93 -175 -41 -323 -79 -330 -86 -18 -18 -10 -3487 10
-3733 24 -311 93 -598 226 -947 39 -100 148 -334 190 -405 79 -133 208 -340
238 -380 16 -22 53 -74 81 -115 28 -41 62 -88 75 -105 14 -16 50 -61 81 -100
208 -258 613 -652 903 -878 289 -226 649 -469 950 -641 36 -21 124 -71 195
-112 166 -95 755 -387 875 -434 30 -11 69 -27 85 -34 17 -8 57 -26 90 -40 l60
-27 140 57 c77 30 183 77 235 104 52 26 169 84 260 129 536 263 1075 592 1508
920 63 47 126 95 142 106 63 45 158 122 205 166 28 26 86 80 130 120 248 226
554 564 694 769 230 337 346 538 433 750 19 47 45 110 58 140 81 195 157 476
185 684 59 434 56 307 53 2229 l-3 1769 -115 29 c-63 16 -214 52 -335 80 -121
28 -256 61 -300 74 -44 13 -107 29 -140 35 -33 6 -114 27 -180 45 -66 19 -169
47 -230 64 -165 45 -460 133 -640 191 -88 29 -190 61 -227 70 -81 23 -570 189
-688 235 -47 18 -103 38 -125 45 -22 7 -92 34 -155 61 -114 48 -211 85 -385
149 -100 36 -294 118 -310 129 -13 10 -222 91 -232 91 -4 -1 -24 -7 -43 -14z
m128 -360 c37 -18 99 -45 137 -59 39 -14 120 -46 180 -70 315 -127 450 -179
525 -203 73 -22 302 -107 365 -134 43 -19 339 -116 630 -207 44 -14 136 -42
204 -64 68 -21 129 -39 135 -39 7 0 68 -18 136 -40 168 -55 388 -119 480 -140
118 -27 631 -160 640 -165 4 -2 52 -12 106 -20 54 -9 102 -22 107 -28 9 -14 0
-2078 -13 -2822 -6 -335 -14 -531 -25 -620 -20 -166 -67 -397 -105 -517 -16
-51 -30 -99 -30 -105 0 -42 -173 -437 -270 -619 -58 -109 -152 -260 -229 -367
-31 -44 -63 -89 -71 -100 -92 -133 -316 -386 -470 -531 -35 -34 -85 -81 -110
-106 -45 -46 -283 -246 -395 -334 -33 -25 -84 -66 -114 -89 -60 -47 -265 -192
-411 -291 -52 -35 -136 -84 -187 -110 -50 -25 -94 -50 -98 -56 -10 -16 -45
-12 -45 5 0 16 -278 20 -1661 20 -530 0 -659 3 -672 13 -27 22 -40 113 -28
190 13 84 27 132 45 155 14 18 61 19 1166 18 634 -1 1156 -3 1160 -6 4 -2 11
-72 15 -155 6 -122 10 -150 22 -150 19 0 229 126 266 159 94 85 126 192 107
363 -25 226 -138 435 -342 634 -80 78 -263 224 -280 224 -5 0 -30 -11 -56 -24
-42 -21 -163 -63 -277 -97 -22 -6 -143 -15 -270 -19 -174 -5 -241 -11 -274
-24 -57 -21 -71 -20 -71 3 0 20 45 46 159 91 64 25 234 114 389 204 34 20 88
51 120 69 66 38 435 299 462 327 3 3 43 39 90 80 47 41 88 80 92 86 8 12 82
97 109 125 37 38 121 154 160 221 170 290 215 626 132 983 -15 63 -83 235
-103 260 -4 6 -20 33 -35 60 -63 114 -120 187 -242 307 -192 189 -300 278
-446 367 -80 49 -108 51 -170 11 -26 -17 -51 -30 -55 -30 -4 -1 -43 -25 -87
-55 -44 -30 -101 -70 -127 -87 -27 -18 -48 -40 -48 -50 0 -9 20 -36 45 -60 24
-24 45 -49 45 -55 0 -10 -67 -13 -302 -13 -167 0 -333 -5 -369 -10 -103 -15
-183 -52 -381 -179 -111 -71 -111 -71 240 -73 169 -2 334 -2 367 -1 33 0 231
-1 441 -4 l381 -5 64 -81 c115 -144 159 -212 159 -246 0 -17 -30 -18 -585 -25
-321 -3 -759 -3 -972 0 -425 7 -459 4 -490 -44 -10 -15 -55 -64 -100 -109 -72
-72 -91 -96 -80 -105 1 -2 520 -5 1152 -8 l1150 -5 -1 -40 c0 -41 -36 -225
-55 -282 l-11 -33 -326 0 c-763 -1 -1887 -13 -1890 -20 -4 -11 57 -119 111
-195 17 -23 22 -23 1229 -43 339 -6 626 -13 637 -17 30 -9 26 -28 -11 -55 -18
-13 -47 -37 -64 -52 -92 -84 -293 -228 -450 -323 -116 -70 -177 -105 -246
-143 -40 -23 -120 -68 -178 -101 -128 -73 -261 -145 -277 -149 -30 -8 -9 29
35 61 71 53 202 192 202 215 0 23 -37 45 -263 161 -75 38 -163 88 -196 110
-33 23 -68 41 -78 41 -41 0 -123 -148 -139 -250 -5 -28 -11 -40 -24 -40 -47 0
-341 289 -400 394 -11 21 -27 47 -34 59 -14 22 -43 96 -73 192 -12 37 -17 89
-16 200 0 146 1 152 33 235 18 47 41 96 50 110 10 14 28 43 40 65 105 190 408
485 688 671 140 93 221 145 247 160 79 45 210 123 320 192 72 44 158 98 192
119 119 73 258 162 283 181 14 10 41 27 60 37 19 10 59 37 89 59 29 23 72 55
96 71 23 17 75 57 116 90 40 33 82 67 93 75 173 137 371 336 489 493 107 142
218 390 246 552 29 170 21 442 -19 600 -11 44 -47 136 -81 205 -53 106 -73
136 -134 198 -90 90 -130 95 -202 29 -31 -28 -30 -69 8 -256 22 -112 27 -157
19 -165 -13 -13 -2759 -11 -2773 3 -8 8 15 237 33 317 5 22 23 79 40 125 49
132 48 123 14 115 -112 -28 -207 -158 -279 -380 -179 -555 32 -1126 580 -1567
43 -35 91 -74 105 -85 85 -73 225 -174 431 -311 49 -33 92 -42 104 -22 4 6 41
37 84 70 123 97 151 122 151 139 0 15 -37 51 -102 101 -16 11 -28 29 -28 39 0
17 16 19 268 22 l267 3 90 48 c158 83 270 156 270 175 0 16 -41 17 -636 22
l-636 5 -58 45 c-71 54 -275 260 -275 278 0 9 159 12 768 11 1001 -2 1247 -8
1247 -31 0 -35 -282 -319 -400 -403 -98 -70 -194 -141 -301 -222 -38 -29 -80
-58 -94 -65 -14 -7 -32 -18 -40 -24 -8 -7 -44 -29 -80 -49 -36 -21 -81 -47
-100 -58 -43 -24 -124 -69 -205 -112 -33 -18 -95 -54 -137 -81 -42 -27 -132
-80 -199 -119 -280 -160 -513 -336 -691 -523 -83 -88 -178 -203 -178 -217 0
-4 -9 -19 -20 -35 -76 -106 -154 -279 -186 -410 -65 -261 -24 -551 114 -810
107 -201 302 -408 534 -568 60 -42 268 -162 279 -162 7 0 35 -13 63 -28 28
-16 97 -46 153 -68 119 -45 126 -59 56 -96 -27 -14 -82 -45 -123 -68 -41 -24
-99 -55 -127 -70 -177 -94 -516 -364 -639 -512 -113 -134 -149 -194 -190 -313
-35 -104 -37 -117 -38 -240 -1 -146 7 -182 60 -251 64 -83 46 -84 -77 -1 -96
63 -134 91 -294 217 -49 39 -101 78 -115 88 -39 25 -246 207 -340 298 -47 45
-103 99 -126 121 -76 71 -211 221 -297 330 -48 59 -99 121 -114 137 -16 16
-52 63 -81 105 -175 252 -344 551 -435 771 -71 174 -148 409 -165 505 -6 33
-20 110 -31 170 -11 61 -25 144 -31 185 -14 96 -31 1827 -28 2764 3 609 5 700
18 707 19 9 162 44 305 74 160 33 521 127 708 184 89 28 214 64 277 81 63 17
176 51 250 75 74 24 223 71 330 105 337 107 853 287 1002 350 13 5 165 65 338
134 173 69 342 138 375 155 33 16 66 30 73 30 7 1 43 -14 80 -33z m780 -1423
l392 -6 0 -28 c0 -58 -49 -207 -94 -284 l-23 -40 -1104 -3 c-607 -1 -1151 1
-1209 5 l-104 8 -23 40 c-32 58 -112 247 -119 284 l-6 31 949 0 c522 0 1126
-3 1341 -7z m-85 -5379 c15 -9 109 -111 192 -210 50 -59 95 -126 95 -140 0
-18 -610 -27 -1330 -19 -608 7 -650 9 -650 25 0 27 139 147 290 251 41 29 85
61 98 73 22 20 37 21 310 27 381 8 975 4 995 -7z m-33 -1280 c0 -7 -28 -26
-62 -44 -134 -70 -358 -180 -458 -224 -58 -26 -128 -58 -156 -72 l-50 -25
-105 50 c-57 27 -171 79 -254 116 -320 143 -393 184 -370 207 12 12 1455 3
1455 -8z M4380 6745 c0 -13 29 -15 205 -15 176 0 205 2 205 15 0 13 -29 15
-205 15 -176 0 -205 -2 -205 -15z M3355 6743 c-155 -12 -338 -39 -440 -65
-187 -47 -417 -173 -532 -290 -64 -66 -163 -202 -163 -225 0 -22 26 -14 41 13
18 35 182 190 222 210 18 9 48 29 67 45 54 42 237 135 310 157 36 11 81 27
100 35 65 28 381 78 583 93 72 5 97 10 97 20 0 11 -25 14 -122 12 -68 -1 -141
-3 -163 -5z M14880 6526 c-210 -63 -382 -198 -513 -405 -111 -173 -195 -441
-138 -441 26 0 34 13 75 123 71 190 169 362 251 440 48 46 282 203 371 249 61
32 84 59 47 57 -10 -1 -52 -11 -93 -23z M2166 6071 c-29 -65 -32 -81 -13 -81
6 0 24 29 40 63 31 71 32 77 13 77 -7 0 -25 -26 -40 -59z M4470 4945 c0 -11
12 -15 50 -15 38 0 50 4 50 15 0 11 -12 15 -50 15 -38 0 -50 -4 -50 -15z"/>
</svg>